{"asset":{"version":"2.0","generator":"Blockbench 4.10.3 glTF exporter"},"scenes":[{"nodes":[26],"name":"blockbench_export"}],"scene":0,"nodes":[{"translation":[0,0,-1],"name":"Table","mesh":0},{"translation":[0,0,0.75],"name":"plane","mesh":1},{"translation":[0,0.8125,0.125],"name":"Hair","mesh":2},{"translation":[0,-0.7062499999999998,0.1375],"name":"Hair","children":[2]},{"translation":[0,-0.7062499999999998,0.1375],"name":"Head","mesh":3},{"rotation":[0.17162717516886003,-0.14693990750338623,-0.03937242955143652,0.9733460782875075],"translation":[0,0.6239780330684033,-0.0340525742627405],"name":"Head","children":[3,4]},{"rotation":[0,0.043619387365336,0,0.9990482215818578],"translation":[0,0.75,0.09999999999999998],"name":"Tail","mesh":4},{"rotation":[0,0.1521233861899167,0,0.9883615104677607],"translation":[0,-0.515625,0.006250000000000033],"name":"Tail","children":[6]},{"rotation":[0,0.08715574274765817,0,0.9961946980917455],"translation":[0,0.0031249999999998224,0.006250000000000033],"name":"Lower Torso","mesh":5},{"translation":[0,-0.109375,-0.10625000000000001],"name":"LowerTorso","children":[7,8]},{"name":"Hand","mesh":6},{"rotation":[0.1067745211560442,-0.11547045919043514,0.21055428079838626,0.9648485215430046],"translation":[0,-0.43960303306840354,-0.00032242573725949075],"name":"LeftHand","children":[10]},{"translation":[0,-4.440892098500626e-16,-0.006249999999999978],"name":"Arm","mesh":7},{"rotation":[0.021483467913105785,0.003788115032265123,0.17360685410302223,0.9845733954354957],"translation":[-0.09579327021541917,-0.17041302867645225,0.00032242573725949075],"name":"LeftArm","children":[11,12]},{"translation":[-0.0020432702154191684,-0.02978802867645225,-0.005927574262740487],"name":"Shoulder","mesh":8},{"rotation":[0.737101884769368,-0.016083620341100297,0.01473792270961086,0.6754294354411674],"translation":[-0.37295672978458083,0.18603802867645225,-0.10344742573725951],"name":"Left","children":[13,14]},{"name":"Hand","mesh":9},{"translation":[0,-0.43960303306840354,-0.00032242573725949075],"name":"RightHand","children":[16]},{"translation":[0,-4.440892098500626e-16,-0.006249999999999978],"name":"Arm","mesh":10},{"rotation":[-0.08371129636988282,0.0204172268003977,-0.151075298230808,0.9847597727234433],"translation":[0.09579327021541917,-0.17041302867645225,0.00032242573725949075],"name":"RightArm","children":[17,18]},{"translation":[0.0020432702154191684,-0.02978802867645225,-0.005927574262740487],"name":"Shoulder","mesh":11},{"rotation":[0.6329238361699239,-0.15146812233925303,0.2573540109159066,0.7143064738531102],"translation":[0.37295672978458083,0.18603802867645225,-0.10344742573725951],"name":"Right","children":[19,20]},{"name":"Upper Torso","mesh":12},{"rotation":[0,0.06540312923014306,0,0.9978589232386035],"name":"UpperTorso","children":[9,15,21,22]},{"rotation":[0,-0.21643961393810288,0,0.9762960071199334],"translation":[0,0.10522803306840345,0.10344742573725951],"name":"Torso","children":[23]},{"rotation":[-0.23768589232617307,0,0,0.9713420698132614],"translation":[0,1.171875,-0.2740841487541258],"name":"Character","children":[5,24]},{"children":[0,1,25]}],"bufferViews":[{"buffer":0,"byteOffset":0,"byteLength":288,"target":34962,"byteStride":12},{"buffer":0,"byteOffset":288,"byteLength":288,"target":34962,"byteStride":12},{"buffer":0,"byteOffset":576,"byteLength":192,"target":34962,"byteStride":8},{"buffer":0,"byteOffset":768,"byteLength":72,"target":34963},{"buffer":0,"byteOffset":840,"byteLength":48,"target":34962,"byteStride":12},{"buffer":0,"byteOffset":888,"byteLength":48,"target":34962,"byteStride":12},{"buffer":0,"byteOffset":936,"byteLength":32,"target":34962,"byteStride":8},{"buffer":0,"byteOffset":968,"byteLength":12,"target":34963},{"buffer":0,"byteOffset":980,"byteLength":2304,"target":34962,"byteStride":12},{"buffer":0,"byteOffset":3284,"byteLength":2304,"target":34962,"byteStride":12},{"buffer":0,"byteOffset":5588,"byteLength":1536,"target":34962,"byteStride":8},{"buffer":0,"byteOffset":7124,"byteLength":528,"target":34963},{"buffer":0,"byteOffset":7652,"byteLength":5616,"target":34962,"byteStride":12},{"buffer":0,"byteOffset":13268,"byteLength":5616,"target":34962,"byteStride":12},{"buffer":0,"byteOffset":18884,"byteLength":3744,"target":34962,"byteStride":8},{"buffer":0,"byteOffset":22628,"byteLength":1308,"target":34963},{"buffer":0,"byteOffset":23936,"byteLength":792,"target":34962,"byteStride":12},{"buffer":0,"byteOffset":24728,"byteLength":792,"target":34962,"byteStride":12},{"buffer":0,"byteOffset":25520,"byteLength":528,"target":34962,"byteStride":8},{"buffer":0,"byteOffset":26048,"byteLength":192,"target":34963},{"buffer":0,"byteOffset":26240,"byteLength":7344,"target":34962,"byteStride":12},{"buffer":0,"byteOffset":33584,"byteLength":7344,"target":34962,"byteStride":12},{"buffer":0,"byteOffset":40928,"byteLength":4896,"target":34962,"byteStride":8},{"buffer":0,"byteOffset":45824,"byteLength":1740,"target":34963},{"buffer":0,"byteOffset":47564,"byteLength":1152,"target":34962,"byteStride":12},{"buffer":0,"byteOffset":48716,"byteLength":1152,"target":34962,"byteStride":12},{"buffer":0,"byteOffset":49868,"byteLength":768,"target":34962,"byteStride":8},{"buffer":0,"byteOffset":50636,"byteLength":264,"target":34963},{"buffer":0,"byteOffset":50900,"byteLength":1440,"target":34962,"byteStride":12},{"buffer":0,"byteOffset":52340,"byteLength":1440,"target":34962,"byteStride":12},{"buffer":0,"byteOffset":53780,"byteLength":960,"target":34962,"byteStride":8},{"buffer":0,"byteOffset":54740,"byteLength":360,"target":34963},{"buffer":0,"byteOffset":55100,"byteLength":408,"target":34962,"byteStride":12},{"buffer":0,"byteOffset":55508,"byteLength":408,"target":34962,"byteStride":12},{"buffer":0,"byteOffset":55916,"byteLength":272,"target":34962,"byteStride":8},{"buffer":0,"byteOffset":56188,"byteLength":96,"target":34963},{"buffer":0,"byteOffset":56284,"byteLength":1152,"target":34962,"byteStride":12},{"buffer":0,"byteOffset":57436,"byteLength":1152,"target":34962,"byteStride":12},{"buffer":0,"byteOffset":58588,"byteLength":768,"target":34962,"byteStride":8},{"buffer":0,"byteOffset":59356,"byteLength":264,"target":34963},{"buffer":0,"byteOffset":59620,"byteLength":1440,"target":34962,"byteStride":12},{"buffer":0,"byteOffset":61060,"byteLength":1440,"target":34962,"byteStride":12},{"buffer":0,"byteOffset":62500,"byteLength":960,"target":34962,"byteStride":8},{"buffer":0,"byteOffset":63460,"byteLength":360,"target":34963},{"buffer":0,"byteOffset":63820,"byteLength":408,"target":34962,"byteStride":12},{"buffer":0,"byteOffset":64228,"byteLength":408,"target":34962,"byteStride":12},{"buffer":0,"byteOffset":64636,"byteLength":272,"target":34962,"byteStride":8},{"buffer":0,"byteOffset":64908,"byteLength":96,"target":34963},{"buffer":0,"byteOffset":65004,"byteLength":1248,"target":34962,"byteStride":12},{"buffer":0,"byteOffset":66252,"byteLength":1248,"target":34962,"byteStride":12},{"buffer":0,"byteOffset":67500,"byteLength":832,"target":34962,"byteStride":8},{"buffer":0,"byteOffset":68332,"byteLength":288,"target":34963}],"buffers":[{"byteLength":68620,"uri":"data:application/octet-stream;base64,"}],"accessors":[{"bufferView":0,"componentType":5126,"count":24,"max":[1.5,1.0625,0.25],"min":[-1.5,0,-0.5],"type":"VEC3"},{"bufferView":1,"componentType":5126,"count":24,"max":[1,1,1],"min":[-1,-1,-1],"type":"VEC3"},{"bufferView":2,"componentType":5126,"count":24,"max":[0.953125,0.953125],"min":[0,0],"type":"VEC2"},{"bufferView":3,"componentType":5123,"count":36,"max":[23],"min":[0],"type":"SCALAR"},{"bufferView":4,"componentType":5126,"count":4,"max":[1.5,0,1.5],"min":[-1.5,0,-1.5],"type":"VEC3"},{"bufferView":5,"componentType":5126,"count":4,"max":[0,1,0],"min":[0,1,0],"type":"VEC3"},{"bufferView":6,"componentType":5126,"count":4,"max":[0.75,0.75],"min":[0,0],"type":"VEC2"},{"bufferView":7,"componentType":5123,"count":6,"max":[3],"min":[0],"type":"SCALAR"},{"bufferView":8,"componentType":5126,"count":192,"max":[0.8076435923576355,0.1749325692653656,0.37774768471717834],"min":[-0.8076435923576355,-0.39199507236480713,-0.2034681737422943],"type":"VEC3"},{"bufferView":9,"componentType":5126,"count":192,"max":[0.9813064932823181,0.988871157169342,0.9688572287559509],"min":[-0.9813064932823181,-0.988871157169342,-0.9688572287559509],"type":"VEC3"},{"bufferView":10,"componentType":5126,"count":192,"max":[0.65625,0.6796875],"min":[0,0.001198887825012207],"type":"VEC2"},{"bufferView":11,"componentType":5123,"count":264,"max":[191],"min":[0],"type":"SCALAR"},{"bufferView":12,"componentType":5126,"count":468,"max":[0.5,1.832271933555603,0.18628472089767456],"min":[-0.5,0.5822719931602478,-0.45657241344451904],"type":"VEC3"},{"bufferView":13,"componentType":5126,"count":468,"max":[1,1,1],"min":[-1,-1,-1],"type":"VEC3"},{"bufferView":14,"componentType":5126,"count":468,"max":[0.4609375,0.4453125],"min":[0.10239921510219574,0],"type":"VEC2"},{"bufferView":15,"componentType":5123,"count":654,"max":[467],"min":[0],"type":"SCALAR"},{"bufferView":16,"componentType":5126,"count":66,"max":[0.375,-0.7927280068397522,0.726492166519165],"min":[-0.375,-1.9602305889129639,-0.34511667490005493],"type":"VEC3"},{"bufferView":17,"componentType":5126,"count":66,"max":[1,1,0.9985664486885071],"min":[-1,-0.9147028923034668,-0.9993366003036499],"type":"VEC3"},{"bufferView":18,"componentType":5126,"count":66,"max":[0.5625,0.453125],"min":[0,0],"type":"VEC2"},{"bufferView":19,"componentType":5123,"count":96,"max":[65],"min":[0],"type":"SCALAR"},{"bufferView":20,"componentType":5126,"count":612,"max":[0.375,0.001021966920234263,0.40280258655548096],"min":[-0.375,-0.6864780187606812,-0.28469741344451904],"type":"VEC3"},{"bufferView":21,"componentType":5126,"count":612,"max":[1,1,1],"min":[-1,-1,-1],"type":"VEC3"},{"bufferView":22,"componentType":5126,"count":612,"max":[0.6640625,0.671875],"min":[0,0],"type":"VEC2"},{"bufferView":23,"componentType":5123,"count":870,"max":[611],"min":[0],"type":"SCALAR"},{"bufferView":24,"componentType":5126,"count":96,"max":[0.1875,0,0.1875],"min":[-0.1875,-0.375,-0.1875],"type":"VEC3"},{"bufferView":25,"componentType":5126,"count":96,"max":[1,1,1],"min":[-1,-1,-1],"type":"VEC3"},{"bufferView":26,"componentType":5126,"count":96,"max":[0.671875,0.6796875],"min":[0.0703125,0.0390625],"type":"VEC2"},{"bufferView":27,"componentType":5123,"count":132,"max":[95],"min":[0],"type":"SCALAR"},{"bufferView":28,"componentType":5126,"count":120,"max":[0.15625,0.013604048639535904,0.13726188242435455],"min":[-0.15625,-0.4396030306816101,-0.12540672719478607],"type":"VEC3"},{"bufferView":29,"componentType":5126,"count":120,"max":[1,1,1],"min":[-1,-1,-1],"type":"VEC3"},{"bufferView":30,"componentType":5126,"count":120,"max":[0.6980574131011963,0.65625],"min":[0.000083871120295953,0],"type":"VEC2"},{"bufferView":31,"componentType":5123,"count":180,"max":[119],"min":[0],"type":"SCALAR"},{"bufferView":32,"componentType":5126,"count":34,"max":[0.05937502533197403,0.1541469693183899,0.16217757761478424],"min":[-0.21875,-0.2000197023153305,-0.15032242238521576],"type":"VEC3"},{"bufferView":33,"componentType":5126,"count":34,"max":[0.9647635221481323,0.7071067690849304,0.9629336595535278],"min":[-0.9743912220001221,-1,-0.9743912220001221],"type":"VEC3"},{"bufferView":34,"componentType":5126,"count":34,"max":[0.6015625,0.65625],"min":[0.07829844206571579,0.0546875],"type":"VEC2"},{"bufferView":35,"componentType":5123,"count":48,"max":[33],"min":[0],"type":"SCALAR"},{"bufferView":36,"componentType":5126,"count":96,"max":[0.1875,0,0.1875],"min":[-0.1875,-0.375,-0.1875],"type":"VEC3"},{"bufferView":37,"componentType":5126,"count":96,"max":[1,1,1],"min":[-1,-1,-1],"type":"VEC3"},{"bufferView":38,"componentType":5126,"count":96,"max":[0.6796875,0.6796875],"min":[0.0703125,0],"type":"VEC2"},{"bufferView":39,"componentType":5123,"count":132,"max":[95],"min":[0],"type":"SCALAR"},{"bufferView":40,"componentType":5126,"count":120,"max":[0.15625,0.013604048639535904,0.13726188242435455],"min":[-0.15625,-0.4396030306816101,-0.12540672719478607],"type":"VEC3"},{"bufferView":41,"componentType":5126,"count":120,"max":[1,1,1],"min":[-1,-1,-1],"type":"VEC3"},{"bufferView":42,"componentType":5126,"count":120,"max":[0.6980574131011963,0.6796875],"min":[0.03125,0.03125],"type":"VEC2"},{"bufferView":43,"componentType":5123,"count":180,"max":[119],"min":[0],"type":"SCALAR"},{"bufferView":44,"componentType":5126,"count":34,"max":[0.21875,0.1541469693183899,0.16217757761478424],"min":[-0.05937502533197403,-0.2000197023153305,-0.15032242238521576],"type":"VEC3"},{"bufferView":45,"componentType":5126,"count":34,"max":[0.9743912220001221,0.26311856508255005,0.9629336595535278],"min":[-0.9647635221481323,-1,-0.9743912220001221],"type":"VEC3"},{"bufferView":46,"componentType":5126,"count":34,"max":[0.671875,0.65625],"min":[0.09375,0.00034689903259277344],"type":"VEC2"},{"bufferView":47,"componentType":5123,"count":48,"max":[33],"min":[0],"type":"SCALAR"},{"bufferView":48,"componentType":5126,"count":104,"max":[0.375,0.5197719931602478,0.17780257761478424],"min":[-0.375,-0.10522803664207458,-0.509697437286377],"type":"VEC3"},{"bufferView":49,"componentType":5126,"count":104,"max":[1,1,1],"min":[-1,-1,-1],"type":"VEC3"},{"bufferView":50,"componentType":5126,"count":104,"max":[0.671875,0.65625],"min":[0,0.0625],"type":"VEC2"},{"bufferView":51,"componentType":5123,"count":144,"max":[103],"min":[0],"type":"SCALAR"}],"materials":[{"pbrMetallicRoughness":{"metallicFactor":0,"roughnessFactor":1,"baseColorTexture":{"index":0}},"alphaMode":"MASK","alphaCutoff":0.05,"doubleSided":true},{"pbrMetallicRoughness":{"metallicFactor":0,"roughnessFactor":1,"baseColorTexture":{"index":1}},"alphaMode":"MASK","alphaCutoff":0.05,"doubleSided":true},{"pbrMetallicRoughness":{"metallicFactor":0,"roughnessFactor":1,"baseColorTexture":{"index":2}},"alphaMode":"MASK","alphaCutoff":0.05,"doubleSided":true}],"textures":[{"sampler":0,"source":0,"name":"table_texture.png"},{"sampler":1,"source":1,"name":"floor_texture.png"},{"sampler":2,"source":2,"name":"iniya_texture_posed.png"}],"samplers":[{"magFilter":9728,"minFilter":9728,"wrapS":33071,"wrapT":33071},{"magFilter":9728,"minFilter":9728,"wrapS":33071,"wrapT":33071},{"magFilter":9728,"minFilter":9728,"wrapS":33071,"wrapT":33071}],"images":[{"mimeType":"image/png","uri":"data:image/png;base64,"},{"mimeType":"image/png","uri":"data:image/png;base64,"},{"mimeType":"image/png","uri":"data:image/png;base64,"}],"meshes":[{"primitives":[{"mode":4,"attributes":{"POSITION":0,"NORMAL":1,"TEXCOORD_0":2},"indices":3,"material":0}]},{"primitives":[{"mode":4,"attributes":{"POSITION":4,"NORMAL":5,"TEXCOORD_0":6},"indices":7,"material":1}]},{"primitives":[{"mode":4,"attributes":{"POSITION":8,"NORMAL":9,"TEXCOORD_0":10},"indices":11,"material":2}]},{"primitives":[{"mode":4,"attributes":{"POSITION":12,"NORMAL":13,"TEXCOORD_0":14},"indices":15,"material":2}]},{"primitives":[{"mode":4,"attributes":{"POSITION":16,"NORMAL":17,"TEXCOORD_0":18},"indices":19,"material":2}]},{"primitives":[{"mode":4,"attributes":{"POSITION":20,"NORMAL":21,"TEXCOORD_0":22},"indices":23,"material":2}]},{"primitives":[{"mode":4,"attributes":{"POSITION":24,"NORMAL":25,"TEXCOORD_0":26},"indices":27,"material":2}]},{"primitives":[{"mode":4,"attributes":{"POSITION":28,"NORMAL":29,"TEXCOORD_0":30},"indices":31,"material":2}]},{"primitives":[{"mode":4,"attributes":{"POSITION":32,"NORMAL":33,"TEXCOORD_0":34},"indices":35,"material":2}]},{"primitives":[{"mode":4,"attributes":{"POSITION":36,"NORMAL":37,"TEXCOORD_0":38},"indices":39,"material":2}]},{"primitives":[{"mode":4,"attributes":{"POSITION":40,"NORMAL":41,"TEXCOORD_0":42},"indices":43,"material":2}]},{"primitives":[{"mode":4,"attributes":{"POSITION":44,"NORMAL":45,"TEXCOORD_0":46},"indices":47,"material":2}]},{"primitives":[{"mode":4,"attributes":{"POSITION":48,"NORMAL":49,"TEXCOORD_0":50},"indices":51,"material":2}]}]}